<?xml version="1.0" standalone="no"?>
<!DOCTYPE svg PUBLIC "-//W3C//DTD SVG 20010904//EN"
 "http://www.w3.org/TR/2001/REC-SVG-20010904/DTD/svg10.dtd">
<svg version="1.0" xmlns="http://www.w3.org/2000/svg"
 width="300.000000pt" height="171.000000pt" viewBox="0 0 300.000000 171.000000"
 preserveAspectRatio="xMidYMid meet">
<metadata>
Created by potrace 1.10, written by Peter Selinger 2001-2011
</metadata>
<g transform="translate(0.000000,171.000000) scale(0.100000,-0.100000)"
fill="#000000" stroke="none">
<path d="M21 1684 c-23 -29 -28 -84 -9 -84 9 0 9 -3 0 -12 -7 -7 -12 -32 -12
-57 l1 -46 13 38 c8 20 20 45 27 55 57 72 97 116 114 123 17 7 16 8 -9 8 -19
1 -44 -12 -77 -40 -49 -41 -66 -46 -29 -9 21 21 27 50 11 50 -5 0 -19 -12 -30
-26z"/>
<path d="M150 1682 l-35 -27 9 -92 c5 -51 12 -93 15 -93 21 1 30 23 35 85 4
39 9 89 12 113 3 23 4 42 2 42 -2 0 -19 -13 -38 -28z"/>
<path d="M305 1679 c-6 -25 -16 -35 -46 -47 -21 -8 -39 -19 -39 -23 0 -5 7 -6
16 -2 14 5 15 1 10 -25 -8 -35 7 -50 31 -30 9 7 24 12 33 10 10 -1 25 9 34 23
9 14 12 25 6 25 -6 0 -13 -7 -16 -15 -4 -8 -12 -15 -20 -15 -21 0 -6 60 22 91
13 14 24 29 24 35 -1 5 -10 -2 -22 -16 -21 -24 -21 -24 -15 -2 3 12 1 22 -3
22 -5 0 -11 -14 -15 -31z m-15 -72 c0 -23 -17 -47 -32 -47 -8 0 -1 45 9 63 9
15 23 6 23 -16z"/>
<path d="M372 1663 c-6 -25 -8 -52 -6 -60 13 -43 14 -45 27 -35 6 5 20 9 30 9
14 0 17 -6 13 -21 -3 -12 -6 -26 -6 -31 0 -16 -81 -38 -93 -26 -8 8 -7 15 1
23 18 18 15 33 -4 18 -8 -8 -14 -25 -12 -39 2 -21 8 -25 27 -23 14 1 28 -3 32
-10 12 -19 159 5 176 28 9 12 13 51 13 116 0 89 -8 116 -25 88 -3 -5 -2 -10 3
-10 5 0 7 -11 4 -25 -2 -14 -11 -25 -19 -25 -11 0 -12 8 -7 35 4 21 2 35 -4
35 -5 0 -13 -43 -17 -95 l-7 -95 -28 0 -28 0 14 47 c16 53 19 143 4 143 -6 0
-10 -26 -10 -59 0 -43 -4 -60 -15 -65 -11 -4 -15 2 -16 22 0 25 -1 26 -9 6 -5
-12 -13 -25 -19 -29 -18 -10 -12 21 10 59 11 19 19 43 17 53 -4 14 -9 10 -21
-17 l-17 -35 6 33 c9 50 -3 38 -14 -15z m118 -163 c0 -11 -20 -14 -58 -11 -15
1 -21 -2 -17 -8 3 -6 -1 -11 -10 -11 -9 0 -15 6 -13 12 8 22 98 38 98 18z"/>
<path d="M637 1697 c3 -4 15 -12 28 -17 13 -5 24 -20 28 -38 3 -16 17 -43 31
-59 l25 -30 -38 -11 c-53 -16 -73 -42 -69 -89 5 -58 42 -73 188 -73 164 1 232
35 215 110 -5 21 -17 34 -45 46 l-38 17 27 27 c35 35 66 130 42 130 -5 0 -12
-18 -16 -41 -8 -48 -54 -105 -90 -111 -14 -3 -25 -1 -25 3 0 5 6 9 14 9 41 0
97 89 80 128 -5 12 -9 4 -15 -28 -12 -64 -47 -90 -122 -90 -51 0 -62 4 -88 29
-21 22 -29 39 -29 65 0 20 -4 36 -10 36 -5 0 -10 -15 -10 -34 0 -38 37 -90 70
-101 11 -4 20 -10 20 -15 0 -5 -14 -4 -30 2 -40 13 -72 60 -74 107 -1 36 -2
37 -38 37 -20 0 -34 -4 -31 -9z m367 -178 c30 -24 33 -40 9 -61 -30 -26 -84
-38 -178 -39 -127 -1 -202 30 -171 72 27 38 68 48 192 49 108 0 124 -2 148
-21z m8 -89 c-36 -30 -142 -55 -127 -30 3 6 18 10 33 10 15 0 45 9 67 19 51
25 55 25 27 1z m-262 -20 c50 -14 58 -18 34 -19 -49 -2 -87 9 -114 31 -20 16
-21 19 -5 13 11 -4 49 -15 85 -25z"/>
<path d="M735 1520 c-12 -4 -27 -15 -35 -25 -12 -14 -12 -18 1 -26 51 -33 202
-40 259 -11 44 22 51 48 15 62 -31 12 -211 12 -240 0z m75 -7 c0 -5 -11 -18
-24 -31 -21 -19 -28 -21 -53 -11 l-28 12 30 7 c21 5 24 8 10 10 -20 1 -20 1 0
10 25 11 65 12 65 3z m78 -5 c-5 -15 -68 -24 -68 -10 0 15 13 22 43 22 18 0
27 -4 25 -12z m60 5 c18 -4 20 -8 10 -14 -10 -7 -8 -9 7 -9 20 -1 20 -1 0 -16
-11 -8 -37 -14 -60 -13 -22 1 -44 0 -50 -1 -24 -6 -66 1 -60 10 3 5 35 9 71 9
36 -1 68 2 71 5 4 3 -3 6 -15 6 -22 0 -28 10 -15 23 8 8 12 8 41 0z"/>
<path d="M824 1673 c-19 -26 -23 -35 -11 -30 13 5 17 1 17 -14 0 -11 5 -17 10
-14 6 4 7 11 4 17 -4 6 -3 8 3 5 11 -7 58 41 49 50 -9 9 -36 -6 -34 -18 2 -6
-5 -13 -14 -14 -24 -4 -23 4 4 32 12 13 17 23 11 23 -6 0 -23 -17 -39 -37z"/>
<path d="M1147 1613 c3 -54 6 -104 8 -110 5 -14 100 -18 109 -5 7 12 7 132 0
175 -3 21 -12 37 -19 37 -10 0 -12 -10 -8 -35 3 -22 2 -35 -5 -35 -6 0 -13 17
-15 38 l-4 37 -2 -40 c-2 -32 -4 -36 -11 -20 -8 18 -9 18 -9 2 -1 -31 -26 -13
-29 21 -2 18 -7 32 -11 32 -5 0 -6 -44 -4 -97z m113 0 c0 -9 -15 -13 -50 -13
-33 0 -50 4 -50 13 0 8 17 12 50 13 35 0 50 -3 50 -13z m-66 -65 c4 -21 2 -34
-6 -40 -13 -7 -25 17 -27 55 -2 30 26 18 33 -15z"/>
<path d="M1779 1684 c-13 -14 -52 -40 -86 -56 -76 -38 -93 -64 -34 -54 46 7
56 -6 38 -53 -9 -24 -8 -41 6 -84 23 -74 23 -78 -24 -128 -50 -54 -136 -192
-172 -276 l-26 -63 36 -27 c22 -17 55 -30 87 -35 95 -14 151 -25 177 -36 15
-6 29 -8 32 -6 5 6 40 11 122 20 28 3 59 9 70 14 11 4 34 13 52 20 63 24 66
36 34 126 -51 143 -109 266 -132 280 -14 8 -14 8 32 -81 34 -65 89 -205 89
-225 0 -10 -52 -40 -68 -40 -4 0 -16 39 -25 88 -19 97 -47 196 -53 189 -2 -2
7 -51 20 -108 14 -57 28 -123 31 -146 6 -39 5 -43 -14 -43 -24 0 -26 6 -41
140 -5 52 -16 122 -24 155 -11 45 -12 62 -3 67 18 11 22 2 66 -122 22 -63 40
-110 40 -104 1 6 -8 37 -19 70 -11 32 -18 64 -15 72 3 8 0 10 -7 6 -7 -5 -9
-2 -5 8 3 9 1 20 -4 25 -18 18 -19 96 -2 152 10 34 13 72 10 103 -6 50 -1 56
33 38 13 -7 21 -7 25 0 10 17 -15 40 -70 65 -27 12 -60 34 -72 49 -30 34 -72
35 -104 0z m92 -10 c13 -14 40 -34 59 -45 19 -10 29 -18 21 -19 -8 0 -38 13
-67 30 l-52 29 -54 -29 c-29 -16 -60 -30 -68 -29 -8 0 4 10 27 22 24 12 50 32
58 45 21 29 46 28 76 -4z m19 -52 c55 -28 75 -59 34 -55 -13 1 -36 -11 -57
-32 -40 -39 -47 -42 -47 -20 0 15 -49 46 -72 44 -7 0 -3 -5 10 -11 12 -6 22
-15 22 -20 0 -4 7 -8 15 -8 8 0 15 -7 15 -15 0 -19 -5 -19 -26 3 -10 9 -21 18
-26 18 -4 1 -12 2 -16 3 -4 0 -13 15 -19 31 -11 30 -11 31 45 60 31 16 59 29
62 29 3 0 30 -12 60 -27z m57 -92 c3 -9 1 -11 -4 -5 -11 14 -39 12 -35 -3 1
-7 -5 -12 -13 -12 -8 0 -15 -4 -15 -8 0 -5 -18 -18 -40 -30 -22 -11 -40 -19
-40 -17 0 19 17 35 37 35 13 0 21 4 18 10 -3 5 5 15 19 22 14 6 26 15 26 20 0
15 43 4 47 -12z m-180 -35 c15 -10 23 -30 28 -70 4 -38 11 -55 21 -55 8 0 13
5 12 11 -2 6 3 14 10 16 6 3 12 -2 12 -11 0 -9 -5 -16 -10 -16 -7 0 -7 -6 0
-20 8 -16 8 -20 -4 -20 -10 0 -13 6 -9 16 4 12 0 14 -18 9 -46 -11 -72 8 -85
61 -7 27 -15 59 -19 72 -6 19 -4 22 17 22 13 0 33 -7 45 -15z m193 6 c0 -5 -7
-28 -15 -51 -8 -23 -15 -53 -15 -66 0 -15 -6 -24 -16 -24 -8 0 -13 -4 -10 -9
3 -4 -6 -6 -20 -3 -17 3 -23 10 -20 21 2 9 10 40 16 69 7 28 19 56 29 62 20
12 51 13 51 1z m-90 -41 c0 -5 -5 -10 -11 -10 -6 0 -9 -7 -5 -15 5 -15 -30
-42 -42 -31 -3 3 0 6 8 6 10 0 10 3 0 16 -11 13 -10 16 8 21 12 3 22 9 22 14
0 5 5 9 10 9 6 0 10 -4 10 -10z m-172 -172 c-33 -44 -114 -206 -122 -243 -3
-16 20 23 52 88 32 64 67 123 77 131 11 8 15 18 10 26 -6 9 -4 11 5 5 8 -5 11
-4 7 1 -3 6 -2 16 3 23 5 8 7 -2 6 -27 0 -22 -4 -38 -8 -36 -4 3 -5 -2 -2 -10
3 -8 -2 -28 -10 -44 -19 -36 -39 -97 -57 -169 -14 -58 -22 -62 -77 -36 -65 29
-65 29 -26 102 59 107 151 237 162 227 2 -3 -6 -20 -20 -38z m115 -30 c-4 -45
-3 -59 5 -54 7 4 12 29 12 56 0 27 5 52 11 56 8 5 9 -39 5 -157 -3 -90 -6
-175 -6 -188 0 -22 -3 -23 -50 -19 -28 3 -53 7 -56 10 -2 3 7 59 22 124 40
184 46 216 40 222 -3 3 -6 -5 -6 -17 0 -12 -4 -20 -9 -17 -4 3 -6 -6 -3 -21 3
-18 1 -24 -6 -19 -8 4 -10 2 -6 -8 3 -8 -1 -39 -9 -68 -8 -29 -21 -86 -28
-125 -11 -67 -14 -73 -36 -73 -13 0 -26 6 -29 14 -7 18 29 139 67 230 16 39
27 76 24 83 -2 8 0 11 5 8 6 -3 10 1 10 9 0 10 9 16 25 16 24 0 25 -1 18 -62z
m61 30 c-3 -29 -3 -30 4 -8 8 24 9 24 15 -10 16 -81 37 -238 37 -272 0 -37 -1
-38 -35 -38 l-35 0 0 180 c0 99 4 180 8 180 5 0 7 -15 6 -32z m-286 -308 c54
-23 66 -44 33 -55 -20 -6 -72 12 -104 37 -19 15 -14 53 7 44 6 -2 35 -14 64
-26z m480 -22 c3 -15 -41 -41 -52 -31 -13 13 -5 42 12 46 25 7 37 2 40 -15z
m-367 -8 c16 0 19 -4 13 -22 -9 -32 -11 -33 -39 -20 -28 13 -37 59 -9 48 9 -3
25 -6 35 -6z m99 -25 c5 -3 10 -1 10 4 0 6 9 11 20 11 26 0 27 -36 1 -50 -29
-15 -93 9 -97 37 -3 19 -1 21 26 13 16 -5 34 -11 40 -15z m141 3 l2 -23 4 23
c6 30 53 32 53 2 0 -11 -3 -21 -7 -21 -54 -8 -72 -7 -83 6 -14 16 -5 35 16 35
8 0 15 -10 15 -22z m-48 -7 c5 -22 0 -31 -20 -31 -7 0 -13 7 -13 15 0 8 6 15
13 15 8 0 7 4 -3 10 -13 8 -13 10 1 10 9 0 19 -9 22 -19z"/>
<path d="M2060 1636 c0 -105 8 -135 36 -142 35 -9 74 4 75 24 0 13 3 11 9 -6
8 -19 16 -22 57 -20 l48 3 7 80 c8 96 -2 110 -69 100 -39 -6 -43 -4 -43 14 0
19 -6 21 -60 21 l-60 0 0 -74z m100 35 c0 -26 -4 -30 -32 -34 -32 -4 -32 -4 5
-5 53 -3 46 -22 -8 -22 l-45 0 0 45 0 45 40 0 c38 0 40 -2 40 -29z m53 -34
c-4 -7 0 -8 13 -3 38 16 54 18 54 8 0 -16 -34 -32 -69 -32 -29 0 -46 19 -18
21 10 0 10 2 0 6 -21 8 -15 22 7 16 11 -3 17 -10 13 -16z m-43 -57 c0 -38 -12
-50 -49 -51 l-36 -2 40 -7 40 -7 -42 -2 -43 -1 0 43 0 42 45 1 c37 1 45 -2 45
-16z m49 -34 c-1 -38 -2 -39 -9 -11 l-7 30 -5 -30 c-4 -23 -5 -20 -7 17 -1 38
2 46 14 42 10 -4 15 -19 14 -48z m61 -1 c0 -19 -4 -35 -10 -35 -11 0 -14 53
-3 63 11 12 13 8 13 -28z"/>
<path d="M2543 1671 c-19 -23 -64 -55 -113 -80 -86 -45 -120 -74 -120 -103 0
-28 39 -41 142 -46 131 -6 152 3 188 82 30 68 74 126 96 126 11 0 14 -18 14
-83 0 -46 3 -87 6 -90 4 -3 14 -2 24 3 13 7 18 29 24 104 3 52 9 101 11 108 4
9 -8 14 -38 16 -33 2 -48 -2 -62 -18 -23 -26 -38 -26 -30 0 5 14 2 20 -9 20
-9 0 -36 -31 -60 -69 -31 -48 -53 -72 -75 -79 -28 -10 -30 -9 -34 16 l-4 27
-2 -27 c0 -18 -7 -28 -16 -28 -27 0 -16 38 17 61 35 25 87 80 88 92 0 16 -17
5 -47 -32z m68 -180 c-7 -11 -24 -24 -39 -28 -38 -11 -205 -8 -227 4 -12 7 20
9 103 5 117 -5 121 -4 144 20 27 28 34 28 19 -1z"/>
<path d="M2940 1698 c0 -7 -7 -25 -14 -40 -8 -16 -11 -28 -5 -28 16 0 10 -20
-16 -45 -14 -15 -19 -25 -11 -25 8 0 20 7 27 16 12 14 14 12 24 -17 6 -18 17
-35 23 -37 7 -2 7 6 -3 25 -21 44 -29 83 -16 83 13 0 14 -4 32 -70 6 -25 13
-40 16 -35 2 6 -3 32 -11 59 -13 41 -13 47 0 42 8 -3 14 1 14 9 0 11 -8 13
-30 9 -26 -6 -30 -4 -30 15 0 25 17 28 22 4 2 -14 6 -12 21 10 13 20 13 25 3
21 -8 -3 -17 -1 -21 5 -9 15 -25 14 -25 -1z"/>
<path d="M1634 1679 c-10 -17 13 -36 27 -22 12 12 4 33 -11 33 -5 0 -12 -5
-16 -11z"/>
<path d="M623 1634 c-8 -20 13 -42 27 -28 12 12 3 44 -11 44 -5 0 -12 -7 -16
-16z"/>
<path d="M1328 1638 c-71 -25 -3 -49 140 -49 90 0 119 4 131 15 8 9 12 18 8
22 -22 22 -228 31 -279 12z m122 -18 c0 -16 -6 -19 -37 -16 -47 3 -55 23 -11
29 18 2 36 5 41 5 4 1 7 -7 7 -18z m130 0 c11 -7 4 -10 -27 -12 -24 -1 -50 -2
-60 -2 -9 -1 -18 5 -20 12 -6 15 84 17 107 2z"/>
<path d="M2864 1625 c-7 -18 2 -45 15 -45 10 0 22 40 15 52 -8 13 -24 9 -30
-7z"/>
<path d="M1074 1619 c-10 -17 13 -36 27 -22 12 12 4 33 -11 33 -5 0 -12 -5
-16 -11z"/>
<path d="M1064 1549 c-9 -15 12 -33 30 -26 9 4 16 13 16 22 0 17 -35 21 -46 4z"/>
<path d="M1373 1525 c-34 -14 -78 -72 -88 -117 -4 -16 -13 -28 -20 -28 -23 0
-25 -14 -11 -71 13 -56 44 -119 58 -119 5 0 1 12 -8 28 l-16 27 20 -25 c11
-13 18 -28 15 -33 -2 -4 13 -15 34 -24 l39 -17 -4 -83 -5 -83 26 0 c33 0 41
25 33 104 l-7 61 41 17 c23 10 39 21 36 26 -3 6 1 15 9 22 8 7 15 17 15 23 0
6 -10 1 -22 -10 -22 -20 -61 -43 -72 -43 -3 0 -6 7 -6 15 0 8 7 15 16 15 20 0
74 38 74 52 0 7 -10 2 -22 -9 -42 -38 -85 -45 -134 -24 -54 24 -78 67 -77 137
2 64 24 109 66 134 64 39 132 17 166 -53 23 -47 27 -100 11 -143 -6 -15 -8
-29 -6 -32 3 -3 8 4 12 14 17 54 22 58 20 17 0 -22 -5 -40 -11 -40 -5 1 -10
-7 -10 -19 0 -11 -7 -29 -15 -39 -13 -16 -13 -18 0 -13 21 7 57 85 65 141 6
43 4 47 -14 47 -16 0 -21 6 -21 26 0 57 -76 135 -131 134 -13 -1 -38 -7 -56
-15z m-78 -225 c7 -34 61 -90 86 -90 18 0 35 -17 26 -26 -10 -10 -74 24 -94
49 -11 15 -22 24 -25 22 -2 -2 -4 4 -5 13 -1 9 -5 30 -9 46 -5 20 -3 27 4 22
6 -3 13 -19 17 -36z m135 -230 c0 -40 -4 -70 -10 -70 -6 0 -10 30 -10 70 0 40
4 70 10 70 6 0 10 -30 10 -70z"/>
<path d="M1587 1523 c-4 -3 -7 -17 -7 -30 0 -35 34 -26 38 10 3 26 -14 37 -31
20z"/>
<path d="M225 1501 c-3 -5 -1 -12 4 -15 5 -4 12 0 14 6 3 7 6 4 6 -6 1 -15 4
-17 12 -9 6 6 8 16 5 22 -9 13 -33 14 -41 2z"/>
<path d="M1367 1489 c-38 -29 -57 -70 -57 -124 0 -87 55 -143 128 -131 102 16
136 161 56 241 -41 41 -84 46 -127 14z m120 -22 c12 -12 27 -43 34 -68 11 -40
10 -50 -7 -85 -11 -24 -33 -47 -55 -58 -32 -17 -40 -18 -69 -6 -68 28 -92 125
-47 191 42 62 98 72 144 26z"/>
<path d="M1417 1388 c-25 -35 -44 -64 -42 -66 2 -2 24 17 49 42 25 25 41 46
35 46 -8 0 -7 5 1 15 7 9 11 18 8 21 -3 3 -26 -23 -51 -58z"/>
<path d="M1421 1326 c-18 -19 -32 -39 -30 -45 2 -5 19 8 38 30 41 50 36 60 -8
15z"/>
<path d="M2875 1466 c-14 -14 -40 -57 -59 -95 -32 -65 -33 -72 -18 -87 9 -9
29 -21 45 -26 l28 -10 -24 -27 c-45 -48 -94 -157 -88 -196 4 -31 42 -66 63
-59 10 3 18 0 18 -6 0 -8 9 -10 24 -6 15 4 28 0 36 -9 9 -11 17 -12 31 -4 13
6 19 6 19 -1 0 -5 12 -9 28 -9 23 2 24 2 5 6 -26 5 -33 43 -8 43 9 0 12 -6 8
-17 -4 -10 -2 -14 5 -9 18 11 10 44 -9 39 -9 -3 -20 0 -24 7 -8 13 12 40 29
39 7 0 6 -2 -1 -6 -15 -5 -17 -23 -4 -23 16 0 23 40 11 55 -10 12 -10 19 1 32
10 11 10 14 2 9 -8 -4 -13 -2 -13 5 0 7 -9 2 -20 -11 -11 -13 -20 -18 -20 -12
0 18 30 41 46 35 13 -5 15 2 10 43 -4 27 -9 73 -13 102 -3 29 -10 55 -15 58
-9 6 -3 -66 9 -108 3 -12 -1 -18 -11 -18 -12 0 -16 11 -17 43 -1 23 -5 56 -9
72 -5 18 -6 1 -3 -44 4 -48 2 -72 -4 -68 -15 9 -24 107 -14 142 5 17 10 25 10
19 1 -11 43 -34 61 -34 6 0 10 5 10 10 0 6 -6 10 -14 10 -27 0 -64 44 -71 83
-7 42 1 49 15 13 8 -23 70 -54 70 -35 0 5 -10 9 -22 10 -22 1 -22 1 2 8 l25 8
-25 4 c-14 2 -29 14 -35 27 -13 29 -40 28 -70 -2z m25 -18 c0 -7 3 -31 6 -53
4 -31 3 -37 -6 -25 -8 12 -9 7 -4 -21 4 -24 2 -39 -6 -44 -9 -5 -10 -1 -5 16
7 23 6 23 -7 5 -12 -15 -18 -17 -36 -7 -28 15 -28 21 9 86 30 53 49 69 49 43z
m-67 -141 c7 4 8 0 3 -12 -5 -15 -4 -16 9 -5 12 10 15 9 15 -6 0 -16 2 -17 10
-4 8 13 10 12 10 -2 0 -24 -25 -23 -49 1 -11 11 -22 17 -25 14 -3 -4 -6 -2 -6
4 0 15 14 26 18 14 2 -6 9 -8 15 -4z m77 -62 c0 -25 -14 -34 -24 -16 -8 12 3
41 15 41 5 0 9 -11 9 -25z m-19 -46 c-13 -45 -44 -137 -52 -158 -8 -19 -15
-22 -37 -17 -15 3 -21 3 -14 0 17 -8 15 -24 -3 -24 -31 0 4 130 49 185 12 14
10 7 -5 -24 -25 -51 -50 -121 -44 -121 3 0 14 22 26 49 15 37 25 48 37 44 14
-4 15 -3 2 5 -12 9 -12 16 3 47 16 34 47 45 38 14z m49 -17 c0 -4 -12 -17 -27
-30 l-28 -24 28 16 c37 22 34 3 -4 -24 -16 -12 -28 -25 -25 -28 3 -3 14 2 24
11 22 20 39 23 23 4 -6 -8 -8 -17 -4 -20 3 -4 -4 -19 -18 -33 -17 -18 -19 -23
-6 -18 15 5 16 3 7 -21 -14 -36 -13 -40 5 -25 25 21 45 -5 22 -28 -17 -16 -19
-16 -28 1 -6 9 -15 14 -21 11 -7 -4 -8 -2 -4 4 4 7 2 12 -3 12 -6 0 -11 -7
-11 -15 0 -8 -5 -15 -11 -15 -21 0 0 63 34 100 32 35 32 35 1 7 -37 -33 -49
-35 -32 -4 7 12 11 26 10 31 -2 4 3 14 9 22 6 8 8 14 5 14 -4 0 -1 10 6 23 7
12 13 25 14 30 1 4 2 9 3 12 2 6 31 -6 31 -13z m36 -7 c-3 -8 -1 -15 4 -15 6
0 10 -4 10 -9 0 -6 -9 -9 -20 -8 -25 2 -29 47 -4 47 10 0 14 -6 10 -15z m4
-113 c0 -5 -13 -18 -30 -30 -34 -25 -41 -13 -10 18 21 21 40 26 40 12z"/>
<path d="M1617 1455 c-7 -16 8 -29 23 -20 15 9 12 35 -4 35 -8 0 -16 -7 -19
-15z"/>
<path d="M2143 1448 c-18 -6 -33 -15 -33 -19 0 -12 2 -11 43 6 20 8 48 15 62
15 16 0 25 -6 25 -15 0 -8 5 -15 11 -15 6 0 9 8 7 18 -4 21 -66 26 -115 10z"/>
<path d="M10 1430 c-16 -29 -12 -35 10 -15 20 18 20 17 20 -18 0 -27 -6 -39
-21 -47 -28 -16 -18 -23 15 -11 19 8 26 7 27 -2 0 -6 3 -38 5 -69 2 -34 0 -58
-5 -58 -6 0 -12 28 -14 63 l-3 62 -2 -67 c-1 -38 -6 -68 -12 -68 -5 0 -10 12
-10 27 0 14 -3 24 -6 20 -6 -6 -15 -167 -9 -167 2 0 18 15 34 33 23 23 31 28
31 15 0 -9 -14 -27 -30 -40 -33 -26 -47 -67 -27 -80 9 -6 9 -10 -2 -17 -11 -7
-11 -9 0 -13 12 -5 12 -9 1 -27 -12 -21 -12 -22 25 -15 46 8 113 41 113 54 0
6 7 10 16 10 12 0 14 7 9 33 -10 45 -28 72 -19 28 4 -23 3 -31 -5 -27 -6 4
-11 14 -11 22 0 8 -9 39 -19 69 -23 65 -18 72 9 13 10 -24 19 -37 19 -30 1 16
-45 109 -59 117 -18 11 -11 25 13 25 56 1 66 53 10 58 -25 3 -34 10 -44 35
-17 45 -19 57 -8 57 5 0 12 -13 15 -30 4 -16 13 -35 20 -41 20 -16 18 -5 -11
56 -28 57 -58 76 -75 45z m119 -139 c18 -11 5 -31 -20 -31 -11 0 -17 5 -14 10
3 6 1 10 -5 10 -6 0 -8 5 -5 10 8 12 25 13 44 1z m-32 -96 c-4 -8 2 -38 12
-67 10 -29 21 -70 24 -91 12 -78 -32 7 -56 108 -3 11 -8 29 -13 39 -6 16 -4
18 9 13 9 -3 17 -2 17 3 0 6 3 10 6 10 3 0 4 -7 1 -15z m-44 -27 c4 -12 1 -28
-5 -35 -11 -14 -21 -10 -24 10 -1 7 -5 20 -9 30 -5 13 -2 17 13 17 12 0 22 -9
25 -22z m47 -145 c0 -7 -4 -13 -10 -13 -5 0 -10 13 -10 29 0 36 -13 46 -31 24
-8 -10 -9 -14 -2 -10 13 8 28 -27 19 -42 -3 -5 1 -14 9 -21 23 -19 18 -30 -15
-30 -20 0 -30 5 -30 15 0 8 5 15 12 15 6 0 4 6 -5 13 -23 16 -17 50 13 82 l24
25 13 -37 c7 -21 13 -44 13 -50z"/>
<path d="M1059 1417 c-19 -12 -35 -30 -37 -38 -1 -9 13 -40 33 -69 l36 -54 2
-133 c2 -139 9 -160 46 -148 21 6 22 11 20 149 l-3 142 32 56 c18 30 32 61 32
67 0 18 -62 51 -96 51 -17 0 -46 -10 -65 -23z m117 -5 c13 -9 26 -54 13 -46
-5 3 -9 0 -9 -7 0 -18 -17 1 -23 26 -3 11 -6 3 -7 -20 -3 -53 -12 -79 -29 -83
-10 -2 -12 6 -8 35 6 36 6 37 -5 9 l-11 -29 -13 32 c-8 18 -18 30 -23 27 -20
-13 -19 25 1 44 22 20 91 28 114 12z m-36 -172 c0 -11 -7 -20 -15 -20 -8 0
-15 9 -15 20 0 11 7 20 15 20 8 0 15 -9 15 -20z m0 -160 c0 -73 -3 -90 -15
-90 -12 0 -15 17 -15 90 0 73 3 90 15 90 12 0 15 -17 15 -90z"/>
<path d="M122 1413 c2 -10 10 -18 18 -18 8 0 16 8 18 18 2 12 -3 17 -18 17
-15 0 -20 -5 -18 -17z"/>
<path d="M573 1415 c-3 -9 -3 -19 1 -22 3 -4 6 -1 6 5 0 24 18 11 29 -20 12
-34 6 -52 -9 -28 -8 13 -10 12 -10 -2 0 -12 8 -18 21 -18 19 0 21 4 16 36 -9
55 -40 83 -54 49z"/>
<path d="M2314 1416 c-10 -26 1 -51 23 -54 30 -4 49 31 27 52 -19 20 -43 21
-50 2z"/>
<path d="M2746 1422 c-2 -4 -1 -14 4 -22 7 -11 11 -11 24 -1 9 7 13 17 10 22
-7 11 -31 12 -38 1z"/>
<path d="M1984 1405 c-7 -17 4 -37 17 -30 12 8 12 45 -1 45 -6 0 -13 -7 -16
-15z"/>
<path d="M2111 1394 c-63 -45 -83 -100 -57 -156 17 -34 61 -68 90 -68 9 0 16
-8 16 -19 0 -11 3 -27 6 -36 5 -11 2 -16 -7 -15 -24 4 -39 0 -39 -9 0 -5 11
-8 24 -7 18 2 26 -3 30 -18 4 -15 8 -18 14 -8 5 7 16 10 25 6 19 -7 20 0 8 63
-7 38 -6 44 15 58 61 40 70 140 17 183 -15 12 -35 29 -44 37 -22 21 -59 17
-98 -11z m137 -39 c15 -18 22 -39 22 -67 0 -34 -6 -46 -37 -74 -38 -35 -64
-41 -107 -24 -44 16 -66 46 -66 91 0 33 6 47 34 75 31 31 37 33 82 29 36 -4
55 -11 72 -30z m-45 -217 c2 -18 0 -35 -5 -37 -6 -2 -4 -8 3 -13 11 -8 11 -9
-1 -5 -8 2 -15 13 -16 24 -1 11 -4 25 -8 32 -4 6 -4 16 -1 21 12 19 23 10 28
-22z"/>
<path d="M2103 1345 c-31 -31 -35 -40 -29 -68 10 -49 39 -72 90 -72 53 0 83
23 92 70 7 37 -11 79 -28 69 -6 -4 -8 -3 -4 4 3 6 2 13 -4 17 -5 3 -10 2 -10
-2 0 -5 -16 -7 -35 -5 -19 2 -32 8 -29 13 12 21 -10 7 -43 -26z m115 -13 c32
-21 30 -74 -4 -101 -68 -54 -165 37 -107 101 19 22 76 22 111 0z"/>
<path d="M2123 1316 c-15 -13 -26 -27 -23 -29 3 -3 20 8 38 24 39 35 25 39
-15 5z"/>
<path d="M2158 1283 c-9 -10 -14 -26 -13 -36 5 -31 15 -32 12 -2 -1 16 3 30
10 32 7 3 11 -3 9 -14 -3 -13 2 -19 15 -20 11 -1 19 5 19 13 0 8 -5 14 -11 14
-5 0 -7 -6 -3 -12 4 -7 3 -9 -1 -5 -16 14 -14 36 3 30 15 -4 15 -3 2 6 -20 14
-24 14 -42 -6z"/>
<path d="M1643 1384 c-9 -23 11 -38 26 -20 13 16 7 36 -10 36 -5 0 -12 -7 -16
-16z"/>
<path d="M270 1381 c-8 -6 -17 -8 -21 -5 -11 6 -69 -17 -69 -28 0 -5 8 -7 18
-4 15 5 21 -2 30 -31 6 -21 8 -39 3 -41 -4 -1 -16 -8 -25 -15 -15 -11 -15 -16
-3 -47 8 -19 23 -68 32 -108 l18 -73 -25 -27 c-46 -48 -83 -128 -171 -367 -61
-166 -61 -163 -26 -180 15 -9 45 -27 66 -41 29 -19 45 -24 70 -19 20 4 33 2
33 -5 0 -5 8 -10 18 -10 10 0 23 -5 28 -10 7 -7 19 -4 36 10 26 20 28 29 13
62 -4 10 -4 25 -1 34 3 8 2 12 -4 9 -6 -3 -10 -13 -10 -20 0 -8 -6 -12 -13 -9
-9 3 -12 16 -9 35 3 20 7 26 12 19 4 -7 11 28 15 78 4 50 4 95 1 101 -9 14 25
284 37 296 6 7 8 -4 4 -30 -4 -22 -9 -106 -11 -185 l-5 -145 10 130 c5 72 13
155 17 185 l7 55 6 -75 5 -75 2 73 c1 40 6 72 12 72 6 0 10 -56 11 -147 0 -82
2 -164 3 -183 2 -19 4 -72 6 -118 3 -74 1 -85 -17 -97 -25 -17 -33 -11 -34 29
l-2 31 -6 -35 c-3 -19 -3 -37 1 -38 5 -2 5 -8 2 -14 -3 -5 8 -2 26 7 18 9 29
12 26 6 -4 -6 -3 -11 3 -11 5 0 13 5 16 10 4 7 13 7 26 0 16 -9 17 -14 6 -30
-6 -11 -19 -20 -27 -20 -13 0 -13 2 0 11 13 9 12 10 -3 5 -11 -3 -20 0 -23 9
-9 23 -26 18 -19 -5 6 -20 -9 -28 -20 -10 -3 6 -13 10 -21 10 -9 0 -12 -5 -8
-12 5 -7 3 -8 -6 -3 -9 6 -11 4 -5 -5 5 -8 21 -11 45 -7 20 2 44 1 52 -4 10
-6 20 -4 28 5 7 10 22 13 46 9 22 -4 34 -2 34 6 0 6 9 11 20 11 11 0 23 7 26
15 4 10 16 13 39 10 24 -3 38 2 51 16 9 10 23 19 29 19 7 0 18 7 25 14 13 16
-5 83 -72 266 -49 132 -76 188 -115 237 -18 23 -33 48 -33 55 0 8 11 57 25
109 13 51 25 97 25 101 0 11 -56 38 -80 38 -12 0 -34 -7 -50 -15 -27 -14 -33
-14 -60 0 -16 8 -38 15 -48 15 -18 0 -32 33 -32 71 0 5 47 9 105 9 l106 0 -6
-37 -5 -38 12 32 c7 17 17 35 22 40 5 5 6 0 1 -12 -4 -11 -9 -31 -11 -45 -4
-22 -3 -23 5 -5 5 11 12 28 15 38 4 13 12 17 26 12 11 -3 20 -3 20 2 0 12 -59
33 -75 27 -7 -3 -16 -1 -20 5 -8 13 -164 14 -185 2z m4 -143 c3 -13 6 -45 7
-73 0 -27 3 -44 6 -37 2 6 11 12 19 12 8 0 11 6 7 16 -5 13 -7 13 -14 2 -5 -8
-9 6 -9 38 0 49 1 51 25 46 25 -4 25 -5 25 -107 0 -114 -5 -136 -26 -128 -16
6 -20 93 -4 93 6 0 10 4 10 10 0 5 -7 7 -15 4 -11 -4 -15 -21 -15 -55 0 -31
-4 -49 -12 -49 -6 0 -8 3 -5 7 4 3 1 13 -6 21 -10 12 -9 16 2 20 11 4 11 6 0
13 -9 5 -14 25 -13 54 1 26 -2 41 -7 34 -4 -8 -12 3 -20 30 -11 37 -10 43 7
56 26 20 31 19 38 -7z m166 -44 c-6 -32 -10 -81 -10 -107 0 -40 2 -46 14 -35
9 8 10 15 4 19 -10 6 7 177 18 189 3 2 9 -2 14 -10 6 -8 10 -11 10 -5 0 5 3 5
9 0 11 -11 -6 -108 -17 -101 -4 2 -8 -24 -10 -58 -2 -33 -6 -64 -10 -67 -4 -4
-22 -10 -41 -14 l-34 -7 7 83 c3 46 6 97 6 114 0 19 7 35 22 47 12 9 24 16 25
14 1 -1 -2 -29 -7 -62z m-65 9 c-11 -7 -13 -13 -7 -13 7 0 12 -9 12 -20 0 -11
-7 -20 -15 -20 -11 0 -15 11 -15 39 0 35 2 39 21 34 21 -6 21 -7 4 -20z m5
-83 c0 -11 -7 -20 -15 -20 -8 0 -15 9 -15 20 0 11 7 20 15 20 8 0 15 -9 15
-20z m0 -75 c0 -48 -14 -60 -24 -22 -10 39 -7 67 9 67 11 0 15 -12 15 -45z
m-134 -164 c-16 -54 -24 -102 -21 -123 4 -23 3 -27 -3 -14 -6 15 -14 -8 -31
-90 -12 -60 -25 -117 -27 -126 -3 -10 -1 -18 4 -18 4 0 14 37 22 83 15 91 34
161 25 92 -16 -128 -12 -132 10 -10 50 284 57 315 72 315 8 0 11 -4 8 -10 -3
-5 -10 -47 -15 -92 -13 -107 -16 -131 -30 -198 -6 -30 -9 -75 -6 -100 8 -71
-5 -124 -32 -128 -19 -3 -22 1 -23 30 -2 32 -2 32 -8 -7 l-6 -40 -27 27 c-16
16 -29 22 -31 15 -3 -9 -8 -9 -17 -1 -9 9 -9 17 0 33 6 12 8 26 5 31 -3 5 3
41 15 78 19 66 26 111 15 100 -8 -7 -42 -135 -50 -185 -7 -47 -10 -48 -42 -30
l-21 12 23 60 c13 33 38 98 55 145 46 122 95 225 121 251 20 20 23 20 31 5 6
-11 1 -45 -16 -105z m164 59 c0 -28 4 -58 9 -68 15 -28 44 -203 54 -327 2 -24
4 -13 5 27 1 37 -9 127 -22 200 -33 182 -37 218 -29 218 7 0 64 -210 77 -285
3 -16 8 -41 12 -55 4 -20 3 -22 -5 -10 -15 21 -13 6 10 -75 10 -38 17 -55 14
-37 -3 19 0 54 6 79 11 40 10 47 -10 73 -25 34 -27 48 -6 30 19 -16 19 -9 -4
70 -11 41 -20 58 -22 45 -3 -11 -15 20 -27 69 -23 93 -24 120 -1 64 7 -18 16
-35 19 -38 18 -16 121 -305 135 -382 6 -32 5 -36 -19 -40 -19 -4 -26 -1 -27
11 0 13 -2 13 -8 -2 -4 -10 -10 -18 -14 -17 -4 0 -15 -6 -23 -15 -20 -20 -41
-19 -48 3 -3 10 -4 6 -3 -8 2 -25 15 -29 47 -16 11 5 16 0 17 -16 1 -13 -1
-18 -5 -13 -4 6 -20 10 -37 10 -33 0 -42 18 -45 100 -1 28 -5 64 -9 80 -6 24
-9 13 -17 -52 -5 -45 -6 -79 -2 -77 4 3 8 22 9 42 1 45 6 33 12 -30 4 -45 3
-48 -19 -48 -29 0 -31 16 -39 313 -4 156 -3 227 4 227 6 0 11 -22 11 -50z
m115 -5 c45 -75 160 -389 150 -405 -4 -6 -12 -10 -18 -10 -15 0 -48 116 -40
138 4 10 2 13 -5 8 -8 -5 -10 -2 -6 8 3 9 -1 23 -10 31 -15 16 -42 92 -37 109
1 5 -3 12 -10 16 -6 5 -13 16 -14 26 -3 34 -27 84 -36 78 -5 -3 -6 3 -2 12 4
12 3 15 -5 10 -8 -5 -10 -2 -6 8 9 22 10 21 39 -29z m-254 -338 c-13 -13 -15
41 -3 70 5 13 8 8 10 -21 2 -21 -1 -43 -7 -49z m415 -112 c-4 -11 -13 -15 -26
-12 -12 3 -20 0 -20 -8 0 -35 -62 -37 -68 -1 -2 10 1 15 7 12 5 -4 12 -2 16 4
3 5 11 10 17 10 6 0 3 -9 -7 -20 -32 -36 0 -21 34 16 34 35 61 35 47 -1z
m-608 -13 c5 -17 -33 -15 -48 3 -19 22 -2 39 23 22 11 -7 23 -19 25 -25z m82
-23 c27 -18 22 -49 -7 -49 -17 1 -17 1 -1 11 16 9 16 11 1 29 -9 11 -19 17
-21 15 -3 -3 1 -11 8 -20 11 -13 9 -15 -14 -15 -21 0 -26 5 -26 25 0 28 21 30
60 4z m98 -5 c16 -5 22 -13 19 -30 -4 -31 -14 -39 -31 -25 -8 6 -20 10 -27 9
-7 -2 -13 8 -14 25 -2 28 8 33 53 21z m249 -39 c-6 -18 -40 -10 -48 11 -7 20
-6 21 22 11 16 -6 28 -16 26 -22z"/>
<path d="M226 965 c-9 -24 -7 -32 4 -15 19 29 9 -6 -26 -95 -19 -49 -32 -74
-29 -55 4 24 3 30 -3 20 -6 -8 -12 -31 -16 -50 -5 -28 -4 -31 4 -15 9 16 9 14
5 -13 -3 -20 -1 -31 5 -27 6 3 10 14 10 24 0 10 18 67 40 126 23 59 38 110 35
113 -3 3 -5 -1 -5 -9 0 -11 -2 -12 -9 -1 -7 11 -10 10 -15 -3z"/>
<path d="M225 555 c-4 -37 -5 -69 -2 -72 3 -2 8 25 12 62 4 36 5 68 2 71 -2 3
-8 -25 -12 -61z"/>
<path d="M410 769 c0 -79 10 -122 26 -107 3 4 3 15 -1 25 -4 10 -9 49 -11 87
-5 98 -14 95 -14 -5z"/>
<path d="M547 589 c-10 -34 -8 -46 3 -29 8 12 10 12 11 -5 0 -20 1 -20 8 0 6
16 9 14 15 -15 4 -19 10 -30 12 -24 2 5 -2 28 -10 50 -8 21 -15 32 -16 24 -1
-10 -4 -9 -9 4 -7 18 -8 18 -14 -5z"/>
<path d="M2488 1385 c-3 -4 -12 -8 -20 -9 -71 -14 -88 -19 -88 -27 0 -5 10 -7
23 -4 19 5 25 0 36 -30 7 -20 11 -38 9 -39 -1 -2 -13 -8 -24 -14 l-22 -11 29
-86 c37 -110 37 -135 -3 -188 -41 -53 -98 -194 -172 -422 -24 -74 -24 -81 -9
-92 9 -7 26 -13 38 -13 11 0 24 -10 30 -22 6 -13 15 -23 20 -24 6 0 18 -4 27
-8 10 -4 23 -6 30 -4 6 2 28 -3 47 -13 32 -15 38 -16 53 -3 9 9 18 11 22 6 9
-15 76 -20 76 -6 0 7 -12 11 -29 10 -17 -1 -28 1 -25 5 2 4 -4 10 -14 14 -16
7 -15 8 3 15 30 13 29 13 69 -26 20 -19 42 -34 49 -31 6 2 21 22 32 45 13 28
25 40 35 37 8 -2 22 0 30 5 11 7 11 10 2 10 -7 0 -11 3 -9 7 3 5 1 28 -3 53
l-7 45 -2 -52 c-1 -45 -4 -53 -20 -53 -17 0 -21 10 -27 80 -3 44 -11 83 -17
87 -10 6 -4 -81 9 -132 6 -25 -16 -57 -33 -47 -9 6 -14 83 -18 277 -4 198 -3
263 5 245 6 -14 11 -50 10 -80 -4 -129 2 -235 10 -215 5 11 7 54 4 95 -3 56
-2 67 6 45 13 -42 40 -234 40 -283 0 -23 3 -43 8 -45 19 -12 -18 269 -64 481
-8 41 12 23 29 -25 15 -43 16 -29 1 23 -4 15 -1 21 10 21 9 0 16 -4 16 -9 0
-5 4 -7 10 -3 22 13 84 -115 166 -345 32 -88 33 -96 17 -107 -15 -12 -19 -7
-34 43 -10 31 -15 62 -13 69 3 7 -2 20 -11 29 -11 10 -14 24 -10 38 5 19 4 20
-5 8 -9 -12 -10 -9 -6 15 5 20 4 25 -3 16 -6 -10 -11 -5 -16 20 -4 19 -11 39
-16 45 -5 6 -11 21 -13 35 -3 13 -5 24 -6 24 -1 0 -3 7 -5 15 -6 29 -40 85
-52 88 -19 3 -16 -12 8 -42 20 -26 63 -133 101 -256 11 -36 26 -85 34 -109 17
-55 17 -61 0 -61 -7 0 -18 15 -24 33 l-11 32 6 -37 c3 -26 1 -38 -6 -38 -7 0
-9 -5 -6 -10 4 -7 13 -7 26 0 24 14 26 -5 2 -19 -10 -6 -13 -11 -7 -11 5 0 15
5 22 12 17 17 27 2 12 -17 -15 -18 -54 -16 -56 3 -1 6 -2 17 -3 23 -2 19 -36
4 -36 -16 0 -15 -8 -21 -32 -23 -18 -2 -33 -7 -33 -11 0 -5 12 -6 28 -3 25 5
26 4 13 -12 -8 -10 -23 -15 -33 -13 -10 3 -18 1 -18 -4 0 -15 47 -10 60 6 7 8
16 13 20 10 4 -3 13 1 19 8 6 8 23 12 40 9 22 -3 33 1 42 16 7 11 18 18 24 16
6 -3 19 4 29 15 16 18 15 24 -24 142 -69 206 -132 343 -174 378 -22 19 -20 73
6 176 22 89 21 95 -16 108 -5 2 -3 20 3 40 10 30 17 37 32 32 10 -4 19 -2 19
3 0 9 -26 20 -75 30 -37 8 -190 13 -197 7z m192 -34 c0 -32 -15 -71 -27 -71
-8 0 -27 -7 -43 -15 -27 -14 -33 -14 -60 0 -16 8 -38 15 -50 15 -11 0 -20 4
-20 9 0 5 -3 23 -6 40 l-6 31 106 0 c58 0 106 -4 106 -9z m-157 -103 c25 -12
27 -18 28 -78 1 -36 1 -70 0 -76 -1 -6 9 -10 21 -10 19 1 22 -4 23 -37 0 -22
-3 -41 -7 -44 -5 -2 -8 3 -8 11 0 9 -5 16 -11 16 -5 0 -8 -4 -5 -9 3 -5 -14
-9 -38 -9 l-43 -1 -6 47 c-3 30 -1 50 6 54 8 5 6 8 -5 8 -21 0 -22 4 -8 31 7
13 7 19 0 19 -5 0 -10 -6 -11 -12 -1 -18 -27 53 -28 75 -1 10 4 15 9 12 6 -3
10 -1 10 4 0 15 40 14 73 -1z m187 -3 c7 -9 9 -23 4 -37 -9 -26 -11 -33 -13
-48 0 -5 -9 -10 -18 -10 -12 0 -14 -3 -6 -8 17 -11 5 -132 -13 -132 -22 0 -19
86 4 99 12 7 13 10 3 11 -11 0 -13 13 -8 60 3 35 1 58 -4 54 -5 -3 -9 -23 -9
-45 0 -24 -5 -39 -12 -39 -10 0 -10 -2 -1 -8 14 -9 5 -102 -10 -102 -5 0 -5
-6 2 -14 9 -10 8 -15 -4 -20 -13 -5 -15 11 -15 112 0 112 1 118 23 127 34 16
64 16 77 0z m-110 -61 c0 -27 -4 -34 -20 -34 -17 0 -20 7 -20 39 0 34 3 38 20
34 15 -4 20 -14 20 -39z m-2 -61 c-2 -9 -9 -18 -17 -21 -8 -3 -11 0 -7 7 4 6
2 11 -3 11 -6 0 -11 5 -11 10 0 6 9 10 21 10 14 0 19 -5 17 -17z m-141 -136
c-3 -8 1 -14 9 -14 9 0 13 6 9 16 -5 12 -3 13 5 5 8 -8 6 -33 -9 -94 -12 -45
-18 -86 -15 -91 3 -5 1 -9 -4 -9 -16 0 -35 -97 -28 -138 5 -29 4 -34 -4 -22
-9 12 -10 8 -6 -19 3 -18 7 -57 7 -85 2 -44 3 -39 12 34 6 47 10 110 9 140 0
37 2 48 8 35 5 -15 9 -5 15 40 8 71 34 197 40 204 12 11 13 -10 5 -69 -5 -36
-10 -89 -10 -119 0 -43 -3 -51 -13 -42 -11 8 -13 5 -9 -18 2 -16 -1 -32 -7
-35 -6 -4 -11 -22 -10 -39 1 -31 1 -30 15 12 19 61 26 63 22 8 -2 -26 -6 -47
-10 -47 -5 0 -8 -36 -8 -80 0 -47 4 -80 10 -80 6 0 10 -6 10 -13 0 -18 -73
-14 -78 3 -3 9 -6 9 -12 1 -3 -7 -14 -9 -24 -5 -13 5 -16 13 -11 33 9 34 1 25
-19 -22 -8 -21 -11 -35 -7 -32 5 2 14 -2 21 -10 11 -13 8 -15 -14 -13 -20 2
-26 8 -26 25 0 13 5 23 11 23 8 0 8 4 0 14 -9 11 -10 20 -1 36 6 11 9 24 6 29
-10 16 27 161 41 161 7 0 13 10 12 23 0 21 -1 21 -9 2 -13 -29 -12 2 1 48 6
22 9 41 6 43 -7 8 -87 -322 -87 -362 0 -2 -9 -4 -20 -4 -11 0 -20 7 -20 16 0
9 -5 12 -11 8 -7 -4 -10 -1 -7 7 6 15 10 15 43 4 17 -6 16 -4 -4 13 l-25 20
48 144 c45 134 129 328 142 328 3 0 4 -6 1 -13z m91 -64 c1 42 6 67 13 67 8 0
10 -20 7 -65 -3 -36 -2 -68 3 -71 5 -3 9 27 9 67 0 40 3 69 7 66 3 -4 10 -125
14 -269 7 -240 7 -263 -9 -275 -16 -12 -15 -12 3 -7 15 5 17 4 9 -5 -20 -21
-44 -1 -45 38 l-2 36 -6 -35 c-4 -22 -12 -35 -21 -35 -12 0 -15 16 -14 90 l1
90 -13 -60 -13 -60 4 50 c2 28 9 120 14 205 6 85 14 175 18 200 l8 45 6 -70 5
-70 2 68z m347 -419 c-9 -9 -13 -19 -10 -22 3 -4 10 0 15 8 8 13 10 12 10 -2
0 -18 -30 -25 -43 -11 -8 7 21 43 35 43 5 0 2 -7 -7 -16z m-411 -77 c8 -14 8
-20 -4 -27 -12 -8 -12 -10 -1 -10 8 0 11 -3 8 -6 -4 -4 -18 1 -33 11 -15 9
-23 12 -20 6 4 -6 2 -11 -3 -11 -6 0 -11 13 -11 28 0 24 4 28 26 27 15 0 32
-8 38 -18z m174 -25 c-2 -9 -12 -18 -23 -20 -17 -3 -17 -1 -5 7 13 10 13 11 0
12 -8 1 -18 1 -23 0 -4 -1 -2 8 5 18 9 15 16 17 31 10 10 -6 17 -18 15 -27z"/>
<path d="M2496 1150 c1 -52 6 -96 11 -97 4 -2 7 17 5 42 -3 36 -1 45 12 45 10
0 13 5 9 17 -4 11 -8 12 -11 5 -9 -27 -21 -9 -25 36 -2 26 -3 4 -1 -48z"/>
<path d="M2421 904 c-12 -32 -20 -59 -17 -61 2 -2 9 12 16 32 7 20 14 34 17
31 2 -2 -5 -31 -17 -64 -12 -34 -21 -65 -19 -71 4 -11 70 169 68 185 0 5 -7
-4 -15 -21 l-15 -30 6 28 c9 43 0 32 -24 -29z"/>
<path d="M2528 745 c-4 -55 -5 -102 -2 -104 11 -12 15 15 12 105 l-3 99 -7
-100z"/>
<path d="M756 1321 c-9 -15 26 -24 84 -23 44 1 49 0 25 -7 -41 -10 -76 -30
-54 -31 8 0 19 4 25 9 5 6 32 13 60 16 l51 7 -2 -53 c-2 -53 -2 -53 4 -9 7 53
32 62 42 15 6 -28 7 -29 8 -4 1 32 -24 56 -64 62 -28 4 -27 4 7 6 50 2 80 -36
76 -93 l-3 -41 -122 -3 c-117 -2 -123 -2 -123 17 0 11 4 30 9 43 10 26 -5 61
-26 65 -11 3 -11 -12 3 -104 3 -18 9 -33 14 -33 5 0 0 -16 -12 -36 -21 -36
-21 -37 -3 -50 21 -15 37 -16 105 -5 l45 7 -45 7 c-24 5 -48 13 -52 20 -6 9
-8 8 -8 -2 0 -11 -4 -9 -14 4 -8 11 -12 23 -10 27 3 5 44 9 92 10 l87 2 -75 6
-75 7 97 -1 c68 -1 99 -5 103 -13 2 -7 -1 -13 -7 -13 -6 0 -9 -3 -5 -6 3 -4
-1 -13 -10 -22 -13 -13 -25 -14 -81 -4 -79 13 -95 9 -22 -7 62 -13 150 -14
170 -1 12 8 12 14 -3 45 -9 20 -17 56 -17 80 0 59 -17 92 -53 105 -37 12 -214
14 -221 1z m122 -8 c-15 -2 -42 -2 -60 0 -18 2 -6 4 27 4 33 0 48 -2 33 -4z"/>
<path d="M2330 1310 c-13 -9 -13 -12 3 -24 12 -9 14 -16 8 -21 -6 -3 -11 -1
-11 5 0 6 -4 8 -10 5 -17 -11 -11 -25 10 -25 25 0 36 24 24 50 -7 15 -13 17
-24 10z"/>
<path d="M626 1258 c-14 -90 -27 -249 -24 -293 l3 -50 50 0 50 0 9 68 c6 46 5
76 -2 90 -6 12 -14 56 -17 97 -7 77 -25 120 -50 120 -8 0 -16 -13 -19 -32z
m40 -19 c1 -13 3 -35 5 -49 3 -20 0 -25 -16 -25 -16 0 -20 7 -20 35 0 23 4 34
13 33 6 -2 12 1 12 5 0 4 -6 14 -12 21 -11 11 -10 13 2 9 8 -3 16 -16 16 -29z
m21 -129 c0 -38 -1 -40 -32 -40 -31 0 -32 1 -31 40 1 38 2 40 32 40 30 0 31
-2 31 -40z m17 -65 c4 -12 -4 -15 -44 -15 -38 0 -50 4 -50 15 0 11 12 15 44
15 30 0 46 -5 50 -15z m-22 -75 c3 -39 3 -40 -29 -40 -18 0 -33 4 -33 9 0 5
-3 23 -6 40 -6 30 -5 31 29 31 33 0 35 -2 39 -40z"/>
<path d="M808 1243 c-10 -2 -18 -8 -18 -13 0 -5 6 -8 13 -6 6 3 26 7 44 10 30
5 32 3 35 -27 l3 -32 6 38 c5 37 5 37 -31 36 -19 -1 -43 -3 -52 -6z"/>
<path d="M553 1195 c-16 -17 -17 -41 -3 -50 9 -6 30 33 30 56 0 13 -13 10 -27
-6z"/>
<path d="M1200 1191 c0 -20 32 -37 49 -26 6 3 7 13 4 22 -6 14 -8 14 -21 -3
-13 -18 -14 -18 -7 4 5 16 2 22 -9 22 -9 0 -16 -8 -16 -19z"/>
<path d="M2306 1165 c-4 -14 -1 -35 5 -47 l12 -22 23 28 c25 28 32 66 13 66
-6 0 -9 -7 -6 -15 3 -7 -3 -24 -14 -37 l-20 -23 5 38 c5 41 -8 51 -18 12z"/>
<path d="M1282 1128 c-20 -26 -62 -107 -62 -123 0 -22 62 -49 93 -41 14 3 33
14 42 23 16 16 16 17 -1 30 -10 7 -32 13 -50 13 -50 0 -57 19 -23 68 15 23 25
42 20 42 -5 0 -13 -6 -19 -12z m36 -115 c17 -3 32 -9 32 -15 0 -5 -4 -7 -9 -4
-5 4 -11 0 -14 -6 -3 -10 -9 -10 -27 0 -12 8 -19 9 -15 3 3 -6 -1 -11 -9 -11
-9 0 -16 5 -16 11 0 5 -4 8 -9 4 -13 -7 -24 12 -15 26 3 6 16 8 28 4 11 -4 36
-9 54 -12z"/>
<path d="M867 1120 c12 -5 34 -5 50 0 24 7 21 8 -22 9 -38 0 -45 -2 -28 -9z"/>
<path d="M2372 1098 c-8 -8 -9 -15 -1 -25 17 -20 29 -15 29 12 0 27 -9 32 -28
13z"/>
<path d="M530 1081 c0 -28 17 -35 29 -12 15 27 14 31 -9 31 -13 0 -20 -7 -20
-19z"/>
<path d="M2290 1063 c-26 -10 -50 -35 -50 -54 0 -10 12 -27 26 -38 l25 -20
-20 -20 c-12 -12 -21 -26 -21 -32 0 -6 8 -3 18 8 9 10 13 13 9 6 -5 -6 -6 -17
-2 -23 3 -5 1 -10 -4 -10 -6 0 -11 -5 -11 -11 0 -8 5 -8 15 1 8 7 13 16 10 20
-3 4 3 14 13 21 15 13 16 12 3 -3 -15 -20 -2 -25 17 -6 13 13 16 29 5 27 -5
-1 -14 -1 -21 0 -20 2 -4 21 18 21 24 0 50 26 50 51 0 20 -42 70 -57 68 -4 0
-15 -3 -23 -6z m0 -35 c0 -18 2 -20 10 -8 8 12 10 12 16 -3 3 -9 1 -24 -6 -32
-11 -13 -10 -14 4 -9 19 7 21 45 4 62 -8 8 -8 12 -1 12 14 0 29 -19 37 -47 10
-32 -25 -49 -65 -33 -22 9 -29 19 -29 40 0 14 3 30 7 33 13 13 23 7 23 -15z"/>
<path d="M846 1015 c-19 -18 -37 -43 -41 -55 -3 -11 -13 -20 -21 -20 -19 0
-61 -87 -80 -167 -12 -54 -13 -76 -5 -105 16 -53 51 -61 242 -56 141 3 158 5
197 28 31 18 42 30 43 49 2 47 -3 75 -22 123 -10 26 -17 48 -15 48 1 0 22 -18
45 -40 51 -49 94 -54 138 -16 41 36 23 59 -48 66 -44 4 -54 9 -57 25 -2 11 -8
24 -13 29 -16 17 -10 -28 7 -53 15 -20 22 -23 61 -17 34 4 45 2 49 -9 10 -25
-16 -45 -57 -45 -36 0 -46 7 -112 75 -41 41 -80 75 -89 75 -9 0 -21 14 -28 30
-20 48 -55 70 -111 70 -42 0 -53 -5 -83 -35z m160 -11 c19 -19 34 -43 34 -52
-1 -11 -7 -6 -17 13 -38 73 -99 85 -159 33 -29 -26 -35 -28 -26 -11 19 34 53
53 96 53 31 0 45 -7 72 -36z m-21 -9 c14 -13 25 -28 25 -33 0 -10 -161 -24
-170 -15 -3 2 12 20 32 39 45 41 79 44 113 9z m51 -101 l11 -39 8 44 c10 62
27 29 23 -46 -3 -56 -4 -58 -43 -79 -60 -33 -85 -38 -85 -20 0 9 -9 16 -20 16
-13 0 -20 -7 -20 -20 0 -24 2 -24 -46 -5 -86 35 -84 32 -84 105 0 77 10 95 26
48 l12 -33 7 32 7 32 87 3 c47 2 90 3 96 3 5 -1 15 -19 21 -41z m74 5 c6 -11
13 -29 15 -40 2 -11 11 -33 19 -50 24 -48 30 -111 12 -134 -15 -19 -15 -18
-16 21 0 46 -17 104 -30 104 -5 0 -2 -16 6 -35 19 -45 18 -99 -2 -116 -13 -10
-17 -10 -25 2 -5 8 -9 9 -9 2 0 -6 -13 -14 -28 -18 -41 -9 -195 -14 -207 -7
-5 3 -28 5 -51 3 -53 -3 -84 23 -84 72 0 39 25 138 43 174 12 23 14 19 13 -47
-1 -60 2 -74 18 -86 11 -8 27 -14 35 -13 10 0 7 4 -6 9 -13 5 -23 11 -23 14 0
6 98 -28 107 -37 10 -11 51 -8 58 3 3 6 20 10 36 10 17 0 28 4 24 10 -3 5 0 7
9 4 8 -3 23 0 33 6 17 11 17 11 -2 5 -16 -5 -18 -4 -7 6 9 10 15 10 23 2 34
-34 -77 -67 -194 -59 -61 4 -72 3 -42 -4 60 -13 162 -12 198 3 53 23 60 38 58
132 0 47 1 85 4 85 2 0 9 -9 15 -21z"/>
<path d="M2182 995 c-16 -35 -15 -60 3 -75 8 -7 15 -20 15 -29 0 -12 -2 -13
-8 -3 -5 7 -9 -19 -10 -60 -1 -39 -4 -74 -7 -76 -9 -9 -18 8 -24 45 -6 34 -10
38 -38 41 -39 4 -77 -14 -69 -33 3 -8 -9 -31 -26 -52 -26 -33 -29 -44 -25 -86
6 -68 24 -82 101 -82 50 0 69 4 86 20 21 19 22 26 16 98 -6 73 -5 77 14 77 18
0 20 -6 18 -62 l-1 -63 -7 55 -7 55 -1 -63 c-2 -47 1 -63 11 -60 8 3 13 31 15
81 3 74 2 77 -20 77 -17 0 -19 3 -9 9 10 7 12 21 7 55 -4 26 -3 53 3 65 8 14
7 29 -4 55 -9 20 -17 36 -19 36 -1 0 -8 -11 -14 -25z m-50 -188 c11 -18 -1
-27 -35 -26 l-32 1 30 8 30 8 -32 1 c-18 0 -33 4 -33 9 0 11 64 11 72 -1z m31
-72 c-3 -11 -107 -19 -130 -11 -8 3 -11 11 -8 16 9 14 141 9 138 -5z m1 -92
c-25 -18 -115 -16 -142 3 -12 8 -22 26 -22 38 0 23 2 23 69 18 39 -2 76 0 87
6 17 9 19 7 22 -21 3 -21 -2 -35 -14 -44z m-60 -31 c22 3 50 8 61 12 20 8 20
7 1 -8 -30 -25 -146 -20 -146 5 0 6 9 5 21 -2 12 -6 40 -9 63 -7z"/>
<path d="M1404 929 c-4 -7 -11 -59 -16 -118 -5 -58 -11 -124 -14 -146 -3 -23
-2 -56 3 -75 7 -28 15 -36 36 -38 15 -2 41 3 57 12 28 13 31 13 40 -4 21 -39
90 -32 90 10 0 24 -51 130 -63 130 -4 0 -17 -4 -27 -10 -15 -8 -20 -6 -26 13
-4 12 -6 41 -5 64 1 23 -3 44 -9 48 -5 3 -10 25 -10 49 0 29 -6 48 -18 59 -22
20 -28 21 -38 6z m41 -91 c6 -24 4 -28 -14 -28 -18 0 -21 6 -21 42 0 37 2 40
14 28 8 -8 18 -27 21 -42z m10 -81 c0 -38 -2 -42 -25 -42 -22 0 -25 5 -28 43
-3 40 -2 42 25 42 26 0 28 -3 28 -43z m15 -72 c0 -11 -11 -15 -40 -15 -48 0
-54 17 -7 23 17 2 35 5 40 5 4 1 7 -5 7 -13z m68 -17 c-2 -3 6 -15 16 -27 11
-12 15 -21 10 -21 -5 0 -3 -4 4 -8 9 -6 6 -14 -12 -31 l-24 -22 -21 27 c-26
32 -27 69 -3 83 18 11 36 10 30 -1z m-58 -37 c0 -50 -9 -61 -51 -61 l-39 0 0
45 0 45 45 0 c43 0 45 -1 45 -29z"/>
<path d="M77 921 c-17 -6 -17 -8 -3 -20 13 -11 19 -11 31 -1 8 7 12 16 9 21
-6 10 -12 10 -37 0z"/>
<path d="M1280 920 c0 -12 50 -33 58 -26 3 3 -1 12 -8 21 -14 17 -50 20 -50 5z"/>
<path d="M2820 910 c0 -10 6 -23 14 -29 12 -10 17 -8 25 8 15 27 14 28 -14 33
-19 4 -25 1 -25 -12z"/>
<path d="M1635 878 c-3 -8 1 -30 9 -49 9 -23 11 -40 5 -50 -14 -22 -11 -35 17
-68 37 -44 94 -38 94 10 0 22 -47 79 -65 79 -7 0 -16 15 -19 34 -8 40 -33 67
-41 44z m54 -130 c14 -13 20 -16 14 -8 -17 18 -16 30 1 30 24 0 38 -26 21 -40
-8 -7 -15 -19 -15 -27 0 -21 -26 1 -46 39 -18 34 -9 36 25 6z"/>
<path d="M2686 865 c3 -16 7 -44 7 -62 0 -18 4 -30 8 -27 10 6 32 -103 26
-127 -3 -12 -1 -17 5 -13 7 5 9 -2 5 -19 -4 -14 -4 -40 0 -59 l7 -33 13 40
c11 33 12 34 9 9 -3 -17 -1 -44 3 -60 l7 -29 7 32 c4 19 -1 61 -12 105 -11 40
-22 96 -26 123 -7 41 -9 46 -15 25 -6 -24 -6 -24 -13 9 -9 44 -8 61 3 36 5
-13 9 -14 9 -5 0 8 -4 24 -9 35 -9 20 -9 20 -10 0 -1 -15 -5 -10 -16 15 -13
32 -14 33 -8 5z"/>
<path d="M634 866 c-6 -16 12 -56 25 -56 5 0 11 11 13 24 7 37 -26 64 -38 32z"/>
<path d="M1537 873 c-4 -3 -7 -17 -7 -30 0 -20 4 -24 27 -21 14 2 29 10 31 18
5 13 3 13 -11 2 -9 -8 -21 -11 -27 -7 -13 8 -13 25 1 25 5 0 7 -6 3 -12 -5
-10 -4 -10 6 -1 7 6 9 16 6 22 -8 12 -20 14 -29 4z"/>
<path d="M33 848 c-12 -6 -25 -18 -28 -27 -5 -13 -4 -14 6 -3 23 22 33 12 11
-11 -12 -13 -22 -30 -22 -37 0 -8 7 -4 17 10 28 40 41 51 48 40 3 -5 1 -10 -5
-10 -7 0 -10 -6 -7 -12 2 -7 -9 -39 -25 -71 -16 -32 -28 -63 -26 -68 2 -6 24
32 50 83 33 67 43 97 36 106 -12 14 -25 14 -55 0z"/>
<path d="M1977 853 c-10 -9 -8 -43 2 -43 5 0 14 7 21 15 17 21 -4 48 -23 28z"/>
<path d="M2867 853 c-10 -10 -8 -51 2 -58 11 -6 31 26 31 49 0 16 -21 22 -33
9z"/>
<path d="M2958 808 c-19 -25 -33 -55 -34 -72 -2 -31 -2 -31 10 -6 14 32 32 51
40 42 4 -3 4 1 1 10 -4 9 -1 19 6 24 7 4 10 3 5 -4 -3 -6 -3 -13 1 -15 5 -3 8
10 9 29 0 19 0 34 -2 34 -1 0 -17 -19 -36 -42z"/>
<path d="M1854 805 c-21 -14 -51 -72 -42 -80 2 -3 13 12 24 33 13 24 28 38 43
40 25 4 25 6 5 -65 -11 -39 71 -73 84 -35 3 11 0 12 -15 3 -15 -7 -25 -7 -39
3 -15 12 -17 19 -7 49 17 57 -9 83 -53 52z"/>
<path d="M2966 734 c-32 -38 -52 -40 -49 -3 3 23 2 23 -12 4 -20 -25 -14 -39
17 -43 18 -2 30 4 42 23 34 51 26 17 -9 -40 -19 -33 -35 -62 -35 -66 0 -14 30
-30 52 -27 18 2 23 10 24 35 l2 33 -20 -26 c-32 -39 -44 -15 -18 36 12 23 24
39 27 36 3 -3 -4 -21 -16 -41 -28 -48 -27 -60 2 -15 14 22 22 52 23 82 1 27 1
48 0 48 -1 0 -14 -16 -30 -36z"/>
<path d="M330 720 c0 -52 14 -52 17 0 2 22 -2 40 -7 40 -6 0 -10 -18 -10 -40z"/>
<path d="M1270 691 c0 -11 -6 -22 -12 -25 -7 -3 1 -3 17 1 39 8 45 11 45 29 0
8 -10 14 -25 14 -18 0 -25 -5 -25 -19z"/>
<path d="M1628 565 c-3 -86 -5 -99 -23 -109 -65 -36 -155 -97 -155 -105 0 -5
6 -13 13 -19 19 -16 242 -102 264 -102 27 0 128 99 157 154 23 43 26 61 26
142 0 89 -1 94 -22 98 -13 2 -48 9 -78 15 -30 6 -83 13 -117 17 l-62 6 -3 -97z
m165 60 c43 -8 81 -15 83 -15 2 0 4 -43 4 -95 0 -69 -3 -95 -12 -95 -21 1
-114 28 -98 29 8 1 31 -3 50 -9 44 -13 50 -4 50 87 0 82 11 73 -111 92 -115
19 -109 22 -109 -63 0 -81 -3 -77 68 -91 18 -4 31 -9 28 -12 -3 -3 -28 0 -55
7 l-51 12 0 84 0 84 38 0 c20 0 72 -7 115 -15z m-28 -20 c102 -15 95 -9 95
-86 0 -79 5 -77 -97 -54 -111 26 -103 18 -103 91 l0 65 33 -5 c17 -3 50 -8 72
-11z m132 -138 c-2 -23 -3 -1 -3 48 0 50 1 68 3 42 2 -26 2 -67 0 -90z m-147
-33 c140 -33 145 -44 59 -127 -34 -32 -63 -56 -66 -54 -2 3 23 31 57 62 33 32
58 61 55 64 -3 2 -31 -21 -63 -52 -32 -31 -64 -57 -72 -57 -13 0 -13 -1 0 -10
30 -19 2 -19 -51 -1 -86 31 -68 55 27 36 27 -6 37 -1 85 43 30 28 51 53 48 56
-3 3 -47 17 -97 30 l-91 24 -66 -40 c-61 -37 -65 -41 -48 -54 23 -17 6 -17
-26 0 -23 13 -21 14 55 59 44 25 80 46 82 47 2 0 52 -12 112 -26z m-28 -20
c11 -7 -2 -32 -19 -38 -9 -4 -36 1 -60 10 -36 14 -41 19 -31 31 9 11 23 13 57
8 25 -4 49 -9 53 -11z m76 -22 c9 -7 8 -13 -7 -26 -15 -13 -28 -16 -52 -11
l-33 7 23 19 c25 20 48 24 69 11z m-149 -23 c19 -8 21 -12 11 -24 -16 -19 -34
-19 -88 2 -41 15 -43 18 -26 30 19 14 52 11 103 -8z m-114 -34 c57 -4 58 -4
41 -21 -14 -14 -20 -13 -61 5 -25 11 -45 23 -45 27 0 3 8 3 18 -2 9 -4 31 -8
47 -9z m200 1 c18 -13 18 -14 -1 -24 -20 -10 -74 -5 -74 7 0 13 24 31 40 31 9
0 25 -6 35 -14z"/>
<path d="M1719 563 c-24 -26 -11 -24 26 6 11 8 5 0 -12 -20 -18 -19 -33 -38
-33 -42 0 -16 38 -5 60 18 13 14 19 25 13 25 -5 0 -18 -9 -28 -20 -10 -11 -20
-18 -23 -15 -2 2 10 16 27 31 25 20 29 29 19 35 -19 13 -22 12 -49 -18z"/>
<path d="M360 600 c0 -16 5 -30 10 -30 6 0 10 14 10 30 0 17 -4 30 -10 30 -5
0 -10 -13 -10 -30z"/>
<path d="M1274 571 c-18 -11 -68 -62 -113 -114 -67 -79 -92 -100 -153 -132
-127 -66 -165 -106 -132 -139 29 -29 246 -34 279 -6 8 6 32 44 53 83 38 69 77
116 87 105 2 -2 8 -43 11 -91 6 -72 10 -87 24 -87 13 0 19 23 33 146 15 131
15 149 1 182 -15 36 -41 72 -53 72 -3 0 -20 -9 -37 -19z m21 -28 c-10 -16 -28
-42 -41 -60 -13 -17 -24 -35 -24 -39 0 -4 -11 -21 -24 -38 -12 -17 -31 -46
-40 -64 -9 -18 -31 -42 -49 -52 -38 -23 -100 -26 -117 -5 -10 12 -5 17 25 30
46 19 49 19 41 -1 -3 -9 -2 -12 4 -9 6 4 9 12 8 19 -2 7 28 46 66 87 37 41 65
69 62 62 -4 -6 -2 -14 3 -18 6 -3 8 4 6 16 -3 15 8 32 38 60 49 45 66 50 42
12z m65 -69 c0 -12 -6 -24 -13 -27 -11 -4 -14 6 -13 39 1 38 3 42 14 27 6 -9
12 -27 12 -39z m-54 -26 c7 -12 -34 -53 -44 -43 -7 6 19 55 29 55 4 0 11 -5
15 -12z m54 -26 c0 -10 -60 -46 -66 -39 -3 2 10 14 28 26 38 24 38 24 38 13z
m-190 -203 c-20 -37 -76 -52 -165 -46 -142 10 -144 25 -3 23 119 -1 129 0 150
22 28 27 32 28 18 1z"/>
<path d="M736 543 c-3 -21 -8 -63 -12 -93 -4 -30 -9 -66 -12 -80 -9 -53 -7
-159 4 -170 8 -8 25 -9 55 -3 l44 9 8 63 c4 36 4 68 -1 75 -6 6 -13 52 -17
101 -7 90 -23 135 -49 135 -9 0 -16 -15 -20 -37z m44 -11 c0 -15 -2 -15 -10
-2 -8 13 -10 12 -10 -2 0 -10 5 -18 10 -18 6 0 10 -13 10 -30 0 -23 -4 -30
-20 -30 -15 0 -20 7 -20 30 0 35 20 81 31 74 5 -3 9 -13 9 -22z m20 -113 c0
-5 -4 -8 -9 -4 -6 3 -7 -9 -4 -30 5 -34 5 -35 -26 -35 -30 0 -31 2 -31 40 0
39 1 40 35 40 19 0 35 -5 35 -11z m10 -99 c0 -5 -22 -10 -50 -10 -27 0 -50 5
-50 10 0 6 23 10 50 10 28 0 50 -4 50 -10z m-70 -47 c0 -10 3 -28 6 -40 5 -17
2 -23 -9 -23 -10 0 -16 13 -19 40 -2 28 0 40 9 40 7 0 13 -8 13 -17z"/>
<path d="M1110 551 c0 -15 6 -21 21 -21 25 0 22 33 -4 38 -12 2 -17 -3 -17
-17z"/>
<path d="M1967 563 c-11 -10 -8 -43 3 -43 6 0 9 3 9 8 -3 20 3 31 19 35 14 4
13 5 -4 6 -11 0 -24 -2 -27 -6z"/>
<path d="M905 540 c-36 -24 -52 -26 -35 -5 9 11 9 15 1 15 -13 0 -27 -28 -18
-36 8 -8 51 6 77 26 33 26 13 25 -25 0z"/>
<path d="M2045 512 c-31 -24 -52 -52 -61 -77 -18 -53 -18 -57 6 -43 16 10 24
10 40 0 24 -15 33 -15 25 -1 -13 20 6 79 35 108 24 23 27 31 16 40 -10 9 -24
3 -61 -27z m15 -29 c-11 -21 -20 -46 -20 -55 0 -12 -8 -18 -25 -18 -23 0 -24
2 -14 28 8 21 63 80 77 82 1 0 -7 -17 -18 -37z"/>
<path d="M1011 526 c-9 -11 -10 -20 -1 -35 14 -28 28 -26 36 3 10 41 -12 60
-35 32z"/>
<path d="M970 513 c0 -26 18 -78 26 -70 3 3 -1 25 -10 49 -9 27 -15 35 -16 21z"/>
<path d="M879 490 c-14 -11 -18 -19 -11 -20 9 0 11 -7 7 -20 -3 -11 -2 -20 3
-20 5 0 13 10 17 23 6 20 7 19 16 -12 6 -18 12 -31 15 -28 3 3 1 21 -4 41 -6
20 -6 36 -2 36 5 0 15 -19 21 -42 6 -24 14 -37 16 -30 3 6 9 10 14 6 12 -7 10
3 -6 46 -10 25 -14 29 -15 15 -1 -19 -2 -18 -10 3 -11 27 -30 28 -61 2z"/>
<path d="M2140 480 c-8 -5 -23 -11 -32 -14 -11 -3 -18 -15 -18 -28 0 -13 -7
-33 -15 -44 -8 -12 -11 -25 -7 -29 4 -5 -2 -5 -13 0 -44 17 -54 16 -92 -8 -43
-27 -90 -79 -103 -111 -17 -48 -21 -66 -12 -66 5 0 12 12 15 28 10 43 43 89
88 122 42 30 92 39 105 19 5 -8 -25 -60 -63 -108 -2 -2 -6 -1 -9 2 -4 4 5 22
20 41 29 38 34 55 11 36 -12 -10 -15 -10 -15 1 0 8 -9 4 -21 -11 -17 -20 -20
-21 -14 -5 8 24 4 20 -45 -46 -22 -29 -40 -57 -40 -63 0 -6 12 6 27 27 14 20
28 35 30 33 9 -9 -30 -69 -48 -73 -10 -3 -19 -9 -19 -14 0 -15 34 3 73 39 28
27 37 32 37 19 0 -25 17 -21 24 6 5 17 8 19 15 8 7 -11 13 -10 36 5 15 10 23
20 16 22 -7 2 -4 13 10 30 12 16 16 28 10 30 -17 6 -13 20 7 25 16 4 16 5 0 6
-16 1 -16 4 -2 44 15 44 37 67 63 67 14 0 14 -2 1 -11 -12 -8 -12 -10 5 -7 26
4 33 38 8 37 -10 0 -25 -4 -33 -9z m-70 -172 c-1 -18 -37 -64 -45 -56 -4 3 3
20 16 37 25 34 29 37 29 19z m-94 -43 c-15 -19 -28 -35 -30 -35 -6 0 3 52 10
58 4 4 4 -2 1 -13 -5 -14 -1 -12 14 8 12 15 24 26 27 23 2 -3 -7 -21 -22 -41z"/>
<path d="M1420 456 c0 -27 17 -43 30 -30 14 16 22 54 11 54 -6 0 -11 -6 -11
-14 0 -8 -5 -18 -11 -22 -8 -4 -9 0 -4 15 4 12 2 21 -4 21 -6 0 -11 -11 -11
-24z"/>
<path d="M2221 412 c-6 -11 -11 -40 -11 -64 0 -24 -4 -48 -9 -54 -12 -12 -26
-194 -17 -229 7 -26 10 -27 52 -22 25 2 50 9 54 13 13 14 12 118 -3 232 -10
79 -18 107 -34 123 l-21 21 -11 -20z m37 -37 c3 -12 0 -15 -10 -10 -10 6 -11
5 0 -6 6 -7 12 -26 12 -41 0 -21 -5 -28 -20 -28 -17 0 -20 7 -20 45 0 25 5 45
11 45 5 0 7 5 3 11 -4 7 -1 10 7 7 8 -3 16 -13 17 -23z m22 -107 c0 -5 -5 -6
-11 -2 -10 6 -8 -10 8 -53 4 -9 -6 -13 -31 -13 -35 0 -36 1 -36 38 0 36 1 37
35 38 19 0 35 -3 35 -8z m10 -98 c0 -17 -7 -20 -50 -20 -37 0 -50 4 -50 14 0
13 17 18 83 24 11 1 17 -5 17 -18z m-70 -70 c0 -40 -13 -53 -24 -24 -11 29 -7
64 9 64 11 0 15 -11 15 -40z"/>
<path d="M2123 403 c0 -21 25 -48 35 -39 3 4 0 11 -7 16 -8 4 -11 15 -8 24 4
10 1 16 -7 16 -7 0 -13 -8 -13 -17z"/>
<path d="M876 391 c-3 -4 0 -16 7 -25 12 -16 14 -16 26 -2 7 8 10 20 6 26 -8
12 -32 13 -39 1z"/>
<path d="M15 373 c-4 -10 -9 -47 -10 -83 -2 -38 1 -57 5 -45 10 28 27 40 75
55 22 7 44 16 49 21 15 14 -7 11 -47 -6 -44 -18 -55 -19 -39 -3 7 7 12 19 12
28 -1 8 -10 -2 -21 -22 -11 -21 -21 -38 -23 -38 -5 0 0 39 6 46 4 3 4 13 1 22
-4 8 -2 13 3 10 11 -7 35 17 27 26 -12 12 -31 6 -38 -11z"/>
<path d="M615 381 c-8 -15 3 -31 21 -31 9 0 14 7 12 17 -4 20 -24 28 -33 14z"/>
<path d="M2813 365 c-13 -9 -20 -22 -17 -30 4 -9 0 -15 -7 -15 -10 0 -8 -5 4
-17 14 -14 19 -15 29 -4 11 11 10 13 -4 8 -22 -8 -24 11 -3 19 8 4 15 12 15
20 0 7 8 18 18 23 14 8 14 10 2 11 -9 0 -25 -7 -37 -15z"/>
<path d="M2340 325 c0 -17 5 -25 13 -22 6 2 12 12 12 22 0 10 -6 20 -12 23 -8
2 -13 -6 -13 -23z"/>
<path d="M2940 325 c-8 -21 -14 -24 -35 -19 -15 4 -25 2 -25 -5 0 -6 8 -11 18
-11 9 -1 -9 -14 -40 -30 -68 -36 -85 -60 -68 -100 20 -49 42 -61 123 -67 53
-4 76 -2 82 7 6 9 0 10 -23 5 -39 -8 -116 3 -139 21 -16 12 -14 13 17 7 45
-10 136 -10 145 -1 4 4 0 17 -9 30 -20 28 -20 38 -1 38 8 0 15 7 15 15 0 8 -4
15 -9 15 -17 0 -21 33 -6 50 21 23 19 37 -3 17 -12 -11 -22 -13 -32 -7 -9 6
-10 10 -3 10 17 0 44 30 38 41 -11 17 -36 9 -45 -16z m-39 -76 c-13 -11 -21
-23 -17 -26 4 -4 11 -1 17 7 8 13 10 13 19 0 8 -12 10 -10 11 10 l1 25 8 -25
8 -25 1 24 c1 24 1 24 16 5 20 -27 19 -31 -15 -43 -19 -6 -30 -17 -30 -28 1
-17 1 -17 11 0 13 23 26 22 40 -4 8 -15 8 -24 0 -32 -7 -7 -12 -5 -17 7 -6 16
-7 16 -19 -1 -11 -15 -14 -14 -29 13 -15 25 -16 26 -12 6 4 -23 3 -24 -32 -17
-79 14 -80 49 -1 97 52 31 74 36 40 7z"/>
<path d="M184 331 c4 -5 1 -11 -6 -13 -15 -5 -1 -28 17 -28 7 0 12 10 11 25 0
14 -7 25 -14 25 -7 0 -11 -4 -8 -9z"/>
<path d="M315 310 c-13 -14 -25 -18 -43 -13 -17 4 -23 2 -18 -6 4 -6 14 -11
22 -11 19 0 18 -26 -1 -34 -8 -3 -15 -11 -15 -17 0 -9 3 -9 14 0 11 9 15 9 19
-1 3 -7 6 -2 7 12 1 14 4 19 7 12 2 -6 8 -10 13 -7 4 2 15 -4 25 -15 17 -18
16 -19 -8 -26 -31 -7 -55 -31 -32 -31 8 0 15 4 15 9 0 16 17 8 28 -14 11 -21
11 -21 7 7 l-5 30 14 -30 c8 -16 13 -31 11 -33 -2 -2 -23 -4 -46 -5 -38 -1
-44 2 -50 23 -7 24 -7 24 -8 3 -1 -26 -23 -30 -44 -8 -9 8 -17 11 -19 5 -2 -5
-9 -6 -17 -1 -27 17 -4 55 46 80 26 13 43 26 36 28 -18 6 -91 -34 -103 -57
-26 -49 21 -106 94 -115 46 -6 335 27 357 40 3 3 10 34 14 69 9 88 -10 126
-63 126 -36 0 -198 -40 -222 -55 -7 -4 -16 -1 -21 6 -12 19 -11 29 2 29 5 0 7
-5 3 -12 -4 -7 -3 -8 4 -4 14 8 16 36 4 36 -5 0 -17 -9 -27 -20z m281 1 c-4
-5 -43 -23 -88 -41 -94 -35 -153 -43 -153 -20 0 10 30 23 95 42 98 27 156 35
146 19z m18 -59 c0 -26 -4 -53 -8 -60 -13 -22 -26 -12 -27 21 -2 31 -2 31 -9
-8 -7 -37 -7 -38 -10 -10 l-2 30 -8 -30 c-7 -28 -8 -28 -9 -5 -1 14 -6 32 -12
40 -7 11 -8 4 -5 -25 l5 -40 -13 40 c-11 35 -11 41 3 52 13 9 17 8 23 -5 6
-14 7 -14 7 3 1 17 3 17 11 5 8 -13 10 -13 10 1 0 9 10 21 23 27 12 6 22 11
22 11 0 1 0 -21 -1 -47z m-110 -55 c5 -25 4 -37 -3 -33 -5 4 -13 1 -17 -6 -6
-9 -10 -5 -15 12 -11 38 -10 72 1 65 6 -3 10 -1 10 6 0 26 18 -7 24 -44z m-49
-3 c8 -43 -1 -56 -15 -23 -10 23 -10 23 -6 2 3 -15 -1 -23 -10 -23 -8 0 -15
11 -15 28 -1 24 -2 23 -9 -8 l-7 -35 -11 28 c-19 46 -15 52 36 50 6 -1 12 3
12 8 0 5 4 9 9 9 5 0 12 -16 16 -36z m155 -38 c-9 -8 -75 -23 -161 -35 -120
-18 -155 -20 -197 -10 -29 6 -55 15 -58 21 -4 7 5 7 27 2 54 -13 197 -5 284
15 44 10 89 19 100 20 17 1 17 -1 5 -13z"/>
<path d="M2682 300 c-49 -28 -82 -38 -82 -24 0 3 5 14 10 25 8 13 7 19 -1 19
-6 0 -13 -9 -16 -20 -3 -11 -18 -26 -35 -34 -27 -14 -29 -14 -23 5 8 25 -7 25
-20 0 -6 -11 -18 -35 -29 -55 -24 -47 -50 -50 -34 -4 9 26 8 33 -5 43 -10 7
-14 20 -10 33 3 13 1 22 -6 22 -6 0 -11 -8 -11 -19 0 -23 -16 -37 -52 -46 -15
-4 -32 -13 -39 -21 -15 -18 -7 -18 36 3 47 22 52 12 16 -28 -32 -35 -38 -49
-21 -49 6 0 16 12 22 28 l11 27 7 -25 8 -25 1 26 c1 28 26 68 36 58 3 -4 0
-18 -6 -33 -19 -42 2 -55 39 -25 15 14 27 30 25 36 -2 6 1 14 7 18 6 4 11 1 9
-6 -3 -28 1 -59 9 -59 5 0 7 13 4 29 -4 32 26 61 64 61 44 0 40 -52 -4 -69
l-27 -9 26 -1 c33 -1 53 21 47 54 -5 22 1 28 53 51 33 15 59 31 59 35 0 14
-11 10 -68 -21z"/>
<path d="M1410 284 c-16 -29 -17 -89 -2 -107 6 -7 16 -38 23 -69 10 -44 18
-58 31 -58 14 0 18 8 18 40 0 22 3 40 8 40 4 0 33 -22 64 -49 64 -55 98 -66
166 -56 61 8 170 43 178 57 12 19 -29 42 -97 56 -114 23 -135 31 -213 82 -67
44 -149 90 -159 90 -2 0 -10 -11 -17 -26z m229 -185 c43 -13 82 -7 105 16 8 8
21 15 29 15 22 0 107 -31 107 -40 0 -4 -21 -13 -46 -19 -41 -11 -48 -10 -60 6
-12 17 -13 16 -7 -4 4 -18 2 -22 -16 -18 -12 2 -21 0 -21 -6 0 -5 -22 -9 -48
-9 -43 0 -56 5 -111 50 -35 28 -82 59 -106 70 -46 21 -64 57 -50 100 6 18 17
11 96 -64 60 -57 102 -89 128 -97z m-88 124 c45 -31 103 -63 127 -72 24 -9 45
-20 46 -26 2 -17 -71 -17 -102 -1 -36 19 -181 155 -166 156 6 0 49 -26 95 -57z
m-92 -115 c-1 -37 -2 -39 -9 -18 -12 36 -12 60 0 60 6 0 10 -19 9 -42z"/>
<path d="M2113 299 c-9 -9 -8 -15 0 -24 16 -17 37 -7 37 16 0 21 -20 25 -37 8z"/>
<path d="M73 244 c-9 -23 11 -38 26 -20 13 16 7 36 -10 36 -5 0 -12 -7 -16
-16z"/>
<path d="M2693 244 c-8 -21 13 -42 28 -27 13 13 5 43 -11 43 -6 0 -13 -7 -17
-16z"/>
<path d="M2073 164 c-3 -8 -3 -42 0 -74 3 -35 1 -62 -6 -69 -6 -6 -7 -14 -2
-18 4 -5 10 -2 12 5 6 16 80 16 86 0 2 -7 6 -11 9 -8 7 7 -8 156 -17 170 -10
16 -75 12 -82 -6z m81 -50 c11 -82 10 -86 -26 -82 -32 3 -33 4 -36 57 -3 55 5
71 39 71 12 0 18 -13 23 -46z"/>
<path d="M1961 151 c-25 -25 -28 -83 -6 -101 12 -10 21 -10 45 0 37 15 49 53
29 89 -19 33 -43 37 -68 12z m53 -14 c12 -9 16 -22 13 -38 -4 -22 -5 -21 -7 6
l-3 30 -6 -35 c-7 -41 -41 -57 -41 -18 0 31 11 68 19 68 4 0 15 -6 25 -13z"/>
<path d="M733 153 c-25 -5 -118 -126 -109 -142 7 -10 86 -13 86 -3 0 12 54 68
77 80 30 17 108 15 143 -3 15 -8 42 -31 59 -52 40 -49 49 -38 12 15 -18 24
-44 46 -65 53 -20 7 -36 19 -36 27 0 10 -6 12 -22 7 -59 -18 -86 -17 -100 4
-7 12 -15 20 -18 20 -3 -1 -15 -4 -27 -6z m7 -23 c6 9 13 7 28 -8 18 -18 18
-21 5 -27 -9 -3 -20 0 -25 7 -5 9 -8 7 -8 -7 -1 -30 -45 -78 -73 -79 -30 -2
-27 11 22 77 20 26 37 43 40 36 2 -8 6 -8 11 1z"/>
<path d="M46 109 c-25 -22 -46 -48 -46 -57 0 -11 17 1 50 33 27 27 52 46 56
42 8 -8 -53 -104 -75 -117 -13 -7 -10 -9 13 -10 16 0 38 8 49 17 18 17 19 17
28 0 6 -10 22 -17 39 -17 25 0 30 4 30 25 0 48 -49 125 -80 125 -10 0 -38 -18
-64 -41z m124 -70 c0 -14 -6 -26 -12 -26 -9 0 -13 15 -13 42 0 35 2 39 12 26
7 -9 13 -28 13 -42z"/>
<path d="M2686 120 c-22 -17 -48 -40 -59 -52 -11 -13 -29 -33 -40 -45 -39 -44
2 -22 45 23 49 53 96 89 105 80 8 -8 -69 -106 -79 -100 -4 3 -5 -2 -2 -10 8
-21 33 -20 57 1 18 17 19 17 28 0 14 -24 66 -23 74 2 11 35 -43 131 -74 131
-9 0 -34 -14 -55 -30z m102 -45 c18 -40 15 -65 -8 -65 -17 0 -19 3 -10 19 7
13 7 28 0 45 -12 34 3 34 18 1z"/>
<path d="M1117 118 c-27 -26 -64 -105 -53 -115 4 -4 11 -1 16 7 7 12 12 12 22
2 36 -36 63 6 46 72 -4 16 -5 32 -2 35 2 3 7 -5 11 -17 3 -12 10 -19 16 -15 6
3 7 1 3 -5 -12 -20 43 -35 77 -21 16 7 24 15 17 19 -7 4 -3 13 10 25 11 10 20
13 20 7 0 -6 -4 -13 -10 -17 -5 -3 -7 -12 -3 -20 3 -9 0 -22 -7 -30 -16 -20
-78 -31 -93 -16 -17 17 -31 13 -17 -4 19 -23 80 -19 108 8 17 15 23 18 22 7
-5 -35 0 -40 46 -40 40 0 45 2 39 18 -4 9 -11 31 -16 49 -15 50 -89 98 -89 58
0 -17 -30 -35 -60 -35 -11 0 -31 11 -44 25 -28 30 -29 30 -59 3z m23 -42 c0
-32 -22 -58 -42 -51 -16 6 -16 10 3 46 21 41 39 44 39 5z m210 -12 c24 -56 24
-54 0 -54 -22 0 -49 39 -28 41 10 0 10 2 1 6 -16 6 -17 53 -3 53 6 0 20 -21
30 -46z"/>
<path d="M584 89 c-8 -14 11 -33 25 -25 16 10 13 36 -3 36 -8 0 -18 -5 -22
-11z"/>
<path d="M2456 91 c-8 -12 21 -34 34 -26 17 11 11 35 -9 35 -11 0 -22 -4 -25
-9z"/>
<path d="M813 79 c-30 -9 -89 -66 -79 -77 3 -2 18 9 34 26 51 54 131 55 185 1
34 -34 44 -34 20 0 -16 24 -87 61 -113 60 -8 0 -29 -5 -47 -10z"/>
<path d="M516 64 c-9 -25 -7 -64 4 -64 6 0 10 13 10 30 0 35 19 41 21 8 1 -13
1 -26 0 -30 0 -5 4 -8 9 -8 14 0 12 54 -2 68 -17 17 -35 15 -42 -4z"/>
<path d="M2352 58 c2 -12 10 -23 18 -23 22 0 19 39 -3 43 -15 3 -18 -1 -15
-20z"/>
<path d="M234 59 c-10 -17 13 -36 27 -22 12 12 4 33 -11 33 -5 0 -12 -5 -16
-11z"/>
<path d="M444 57 c3 -10 6 -27 6 -38 0 -10 5 -19 10 -19 15 0 12 34 -6 56 -14
17 -15 17 -10 1z"/>
<path d="M2866 61 c-7 -11 3 -41 14 -41 11 0 21 30 14 41 -7 12 -21 12 -28 0z"/>
<path d="M353 50 c-12 -5 -27 -18 -33 -29 -14 -28 -3 -27 21 2 l20 22 -12 -25
c-11 -23 -11 -24 5 -11 20 17 40 51 29 50 -4 0 -18 -4 -30 -9z"/>
<path d="M2966 37 c-15 -16 -26 -31 -22 -34 3 -3 14 5 25 18 11 13 20 19 21
14 0 -6 -4 -16 -10 -23 -5 -7 -3 -6 6 2 9 7 14 22 12 32 -3 17 -6 16 -32 -9z"/>
<path d="M1811 16 c-21 -12 -19 -13 23 -13 25 0 45 1 44 2 -23 18 -46 22 -67
11z"/>
</g>
</svg>
